<svg preserveAspectRatio="none" width="100%" height="100%" overflow="visible" style="display: block;" viewBox="0 0 35 30" fill="none" xmlns="http://www.w3.org/2000/svg">
<g id="Group">
<path id="Vector" d="M7.98906 15.1759H15.1759" stroke="var(--stroke-0, #FDE10D)" stroke-width="2.39562" stroke-linecap="round" stroke-linejoin="round"/>
<path id="Vector_2" d="M7.98906 10.3847H15.1759" stroke="var(--stroke-0, #FDE10D)" stroke-width="2.39562" stroke-linecap="round" stroke-linejoin="round"/>
<path id="Vector_3" d="M26.5552 19.9672C30.1936 19.9672 33.1431 17.0177 33.1431 13.3792C33.1431 9.74074 30.1936 6.79125 26.5552 6.79125C22.9167 6.79125 19.9672 9.74074 19.9672 13.3792C19.9672 17.0177 22.9167 19.9672 26.5552 19.9672Z" stroke="var(--stroke-0, #FDE10D)" stroke-width="2.39562" stroke-linecap="round" stroke-linejoin="round"/>
<path id="Vector_4" d="M22.3628 23.5606H3.19781C2.88013 23.5606 2.57547 23.4344 2.35083 23.2098C2.1262 22.9852 2 22.6805 2 22.3628V3.19781C2 2.88013 2.1262 2.57547 2.35083 2.35083C2.57547 2.1262 2.88013 2 3.19781 2H29.5497C29.8673 2 30.1721 2.1262 30.3967 2.35083C30.6212 2.57547 30.7475 2.88013 30.7475 3.19781V8.2975" stroke="var(--stroke-0, #FDE10D)" stroke-width="2.39562" stroke-linecap="round" stroke-linejoin="round"/>
<path id="Vector_5" d="M22.3628 18.4611V28.352L26.5552 25.9564L30.7475 28.352V18.4611" stroke="var(--stroke-0, #FDE10D)" stroke-width="2.39562" stroke-linecap="round" stroke-linejoin="round"/>
</g>
</svg>
