<svg width="619" height="420" viewBox="0 0 619 420" fill="none" xmlns="http://www.w3.org/2000/svg">
<line opacity="0.5" x1="219" y1="89.5" x2="406" y2="89.5" stroke="#CAD3D7" stroke-dasharray="2 2"/>
<line opacity="0.5" x1="219" y1="329.5" x2="406" y2="329.5" stroke="#CAD3D7" stroke-dasharray="2 2"/>
<line opacity="0.5" x1="219" y1="269.5" x2="406" y2="269.5" stroke="#CAD3D7" stroke-dasharray="2 2"/>
<line opacity="0.5" x1="219" y1="149.5" x2="406" y2="149.5" stroke="#CAD3D7" stroke-dasharray="2 2"/>
<circle cx="399" cy="210" r="60" fill="#CAD3D7"/>
<circle opacity="0.5" cx="399" cy="210" r="119.5" stroke="#CAD3D7"/>
<path d="M411.917 220C411.21 218.399 410.173 216.944 408.867 215.718C407.56 214.493 406.009 213.521 404.302 212.857C402.594 212.194 400.765 211.853 398.917 211.853C397.069 211.853 395.239 212.194 393.532 212.857C391.825 213.521 390.274 214.493 388.967 215.718C387.66 216.944 386.624 218.399 385.917 220M407.711 202.427C407.711 207.634 403.774 211.854 398.917 211.854C394.06 211.854 390.122 207.634 390.122 202.427C390.122 197.221 394.06 193 398.917 193C403.774 193 407.711 197.221 407.711 202.427Z" stroke="#3E485A" stroke-width="2" stroke-linecap="round" stroke-linejoin="round"/>
<path opacity="0.5" d="M407.917 204.516C407.917 200.917 410.603 198 413.917 198C417.23 198 419.917 200.917 419.917 204.516C419.917 208.115 417.23 211.032 413.917 211.032C414.583 211.032 415.89 211.275 417.116 211.746C418.342 212.218 419.455 212.909 420.394 213.78C421.332 214.652 422.076 215.686 422.583 216.824" stroke="#3E485A" stroke-width="2" stroke-linecap="round" stroke-linejoin="round"/>
<path opacity="0.5" d="M389.583 204.516C389.583 200.917 386.897 198 383.583 198C380.27 198 377.583 200.917 377.583 204.516C377.583 208.115 380.27 211.032 383.583 211.032C382.257 211.032 381.61 211.277 380.384 211.749C379.158 212.22 378.045 212.912 377.107 213.783C376.169 214.654 375.424 215.688 374.917 216.827" stroke="#3E485A" stroke-width="2" stroke-linecap="round" stroke-linejoin="round"/>
<circle cx="219" cy="210" r="60" fill="#CAD3D7"/>
<circle opacity="0.5" cx="219" cy="210" r="119.5" stroke="#CAD3D7"/>
<ellipse cx="209.625" cy="210.264" rx="1.75551" ry="1.75589" fill="#879AA4"/>
<ellipse cx="224.984" cy="218.455" rx="1.9018" ry="1.75589" fill="#879AA4"/>
<ellipse cx="234.202" cy="218.455" rx="1.75551" ry="1.75589" fill="#879AA4"/>
<ellipse cx="205.973" cy="218.455" rx="1.9018" ry="1.75589" fill="#879AA4"/>
<ellipse cx="223.236" cy="202.947" rx="1.9018" ry="1.75589" fill="#879AA4"/>
<ellipse cx="231.428" cy="202.947" rx="1.9018" ry="1.75589" fill="#879AA4"/>
<ellipse cx="239.618" cy="202.947" rx="1.9018" ry="1.75589" fill="#879AA4"/>
<ellipse cx="215.041" cy="202.947" rx="1.9018" ry="1.75589" fill="#879AA4"/>
<ellipse cx="232.304" cy="186.561" rx="1.9018" ry="1.75589" fill="#879AA4"/>
<ellipse cx="223.236" cy="186.561" rx="1.9018" ry="1.75589" fill="#879AA4"/>
<ellipse cx="226.013" cy="233.967" rx="1.75551" ry="1.75589" fill="#879AA4"/>
<ellipse cx="216.795" cy="233.967" rx="1.9018" ry="1.75589" fill="#879AA4"/>
<ellipse cx="219.577" cy="209.653" rx="2.63327" ry="2.63384" fill="#3E485A"/>
<ellipse cx="227.769" cy="209.653" rx="2.63327" ry="2.63384" fill="#3E485A"/>
<ellipse cx="235.959" cy="209.653" rx="2.63327" ry="2.63384" fill="#3E485A"/>
<ellipse cx="202.317" cy="209.653" rx="2.63327" ry="2.63384" fill="#3E485A"/>
<ellipse cx="215.043" cy="217.849" rx="2.77956" ry="2.63384" fill="#3E485A"/>
<ellipse cx="197.78" cy="217.849" rx="2.77956" ry="2.63384" fill="#3E485A"/>
<ellipse cx="205.969" cy="202.341" rx="2.77956" ry="2.63384" fill="#3E485A"/>
<ellipse cx="226.894" cy="194.146" rx="2.63327" ry="2.63384" fill="#3E485A"/>
<ellipse cx="217.673" cy="194.146" rx="2.77956" ry="2.63384" fill="#3E485A"/>
<ellipse cx="209.63" cy="194.146" rx="2.63327" ry="2.63384" fill="#3E485A"/>
<ellipse cx="213.288" cy="185.95" rx="2.77956" ry="2.63384" fill="#3E485A"/>
<ellipse cx="235.086" cy="178.78" rx="2.63327" ry="2.78016" fill="#3E485A"/>
<ellipse cx="225.862" cy="178.78" rx="2.77956" ry="2.78016" fill="#3E485A"/>
<ellipse cx="217.673" cy="178.78" rx="2.77956" ry="2.78016" fill="#3E485A"/>
<ellipse cx="220.456" cy="241.405" rx="2.63327" ry="2.78016" fill="#3E485A"/>
<ellipse cx="211.388" cy="241.405" rx="2.63327" ry="2.78016" fill="#3E485A"/>
<ellipse cx="203.192" cy="241.405" rx="2.63327" ry="2.78016" fill="#3E485A"/>
<ellipse cx="206.854" cy="233.214" rx="2.77956" ry="2.78016" fill="#3E485A"/>
<ellipse cx="228.645" cy="226.044" rx="2.63327" ry="2.63384" fill="#3E485A"/>
<ellipse cx="219.577" cy="226.044" rx="2.63327" ry="2.63384" fill="#3E485A"/>
<ellipse cx="211.388" cy="226.044" rx="2.63327" ry="2.63384" fill="#3E485A"/>
</svg>
