<svg width="32" height="32" viewBox="0 0 32 32" fill="none" xmlns="http://www.w3.org/2000/svg">
<path d="M27.2262 16.4929C28.3862 16.9596 29.1062 18.3329 28.8395 19.5463L28.2928 22.0262C27.3462 26.2929 23.9995 29.3329 19.1728 29.3329H12.8262C7.99949 29.3329 4.65283 26.2929 3.70616 22.0262L3.15949 19.5463C2.89282 18.3329 3.61281 16.9596 4.77281 16.4929L6.66616 15.7329L14.0128 12.7863C15.2928 12.2796 16.7062 12.2796 17.9862 12.7863L25.3328 15.7329L27.2262 16.4929Z" stroke="#F4F5F6" stroke-width="1.5" stroke-linecap="round" stroke-linejoin="round"/>
<path d="M16 29.333V13.333" stroke="#F4F5F6" stroke-width="1.5" stroke-linecap="round" stroke-linejoin="round"/>
<path d="M25.3332 10.667V15.7336L17.9865 12.787C16.7065 12.2803 15.2932 12.2803 14.0132 12.787L6.6665 15.7336V10.667C6.6665 8.46699 8.4665 6.66699 10.6665 6.66699H21.3332C23.5332 6.66699 25.3332 8.46699 25.3332 10.667Z" stroke="#F4F5F6" stroke-width="1.5" stroke-linecap="round" stroke-linejoin="round"/>
<path d="M19.3332 6.66699H12.6665V4.00033C12.6665 3.26699 13.2665 2.66699 13.9998 2.66699H17.9998C18.7332 2.66699 19.3332 3.26699 19.3332 4.00033V6.66699Z" stroke="#F4F5F6" stroke-width="1.5" stroke-linecap="round" stroke-linejoin="round"/>
</svg>
