<svg width="33" height="32" viewBox="0 0 33 32" fill="none" xmlns="http://www.w3.org/2000/svg">
<path d="M16.3333 29.3337C23.6971 29.3337 29.6667 23.3641 29.6667 16.0003C29.6667 8.63653 23.6971 2.66699 16.3333 2.66699C8.96954 2.66699 3 8.63653 3 16.0003C3 23.3641 8.96954 29.3337 16.3333 29.3337Z" stroke="#F4F5F6" stroke-width="1.5" stroke-linecap="round" stroke-linejoin="round"/>
<path d="M11.0005 4H12.3338C9.73379 11.7867 9.73379 20.2133 12.3338 28H11.0005" stroke="#F4F5F6" stroke-width="1.5" stroke-linecap="round" stroke-linejoin="round"/>
<path d="M20.3335 4C22.9335 11.7867 22.9335 20.2133 20.3335 28" stroke="#F4F5F6" stroke-width="1.5" stroke-linecap="round" stroke-linejoin="round"/>
<path d="M4.3335 21.3333V20C12.1202 22.6 20.5468 22.6 28.3335 20V21.3333" stroke="#F4F5F6" stroke-width="1.5" stroke-linecap="round" stroke-linejoin="round"/>
<path d="M4.3335 11.9998C12.1202 9.3998 20.5468 9.3998 28.3335 11.9998" stroke="#F4F5F6" stroke-width="1.5" stroke-linecap="round" stroke-linejoin="round"/>
</svg>
