<svg width="33" height="32" viewBox="0 0 33 32" fill="none" xmlns="http://www.w3.org/2000/svg">
<path d="M16.8268 17.0409C16.7335 17.0276 16.6135 17.0276 16.5068 17.0409C14.1601 16.9609 12.2935 15.041 12.2935 12.681C12.2935 10.2676 14.2401 8.30762 16.6668 8.30762C19.0801 8.30762 21.0401 10.2676 21.0401 12.681C21.0268 15.041 19.1735 16.9609 16.8268 17.0409Z" stroke="#F4F5F6" stroke-width="1.5" stroke-linecap="round" stroke-linejoin="round"/>
<path d="M25.653 25.8391C23.2797 28.0124 20.133 29.3324 16.6664 29.3324C13.1997 29.3324 10.053 28.0124 7.67969 25.8391C7.81302 24.5858 8.61302 23.3591 10.0397 22.3991C13.693 19.9724 19.6664 19.9724 23.293 22.3991C24.7197 23.3591 25.5197 24.5858 25.653 25.8391Z" stroke="#F4F5F6" stroke-width="1.5" stroke-linecap="round" stroke-linejoin="round"/>
<path d="M16.6663 29.3337C24.0301 29.3337 29.9997 23.3641 29.9997 16.0003C29.9997 8.63653 24.0301 2.66699 16.6663 2.66699C9.30254 2.66699 3.33301 8.63653 3.33301 16.0003C3.33301 23.3641 9.30254 29.3337 16.6663 29.3337Z" stroke="#F4F5F6" stroke-width="1.5" stroke-linecap="round" stroke-linejoin="round"/>
</svg>
