<svg width="32" height="33" viewBox="0 0 32 33" fill="none" xmlns="http://www.w3.org/2000/svg">
<path d="M22.6133 8.30664C25.2799 10.16 27.12 13.1066 27.4933 16.5066" stroke="#F4F5F6" stroke-width="1.5" stroke-linecap="round" stroke-linejoin="round"/>
<path d="M4.65381 16.573C5.00048 13.1864 6.81381 10.2397 9.45381 8.37305" stroke="#F4F5F6" stroke-width="1.5" stroke-linecap="round" stroke-linejoin="round"/>
<path d="M10.9199 28.001C12.4666 28.7876 14.2266 29.2276 16.0799 29.2276C17.8666 29.2276 19.5466 28.8276 21.0533 28.0943" stroke="#F4F5F6" stroke-width="1.5" stroke-linecap="round" stroke-linejoin="round"/>
<path d="M16.0797 10.3459C18.1269 10.3459 19.7864 8.68642 19.7864 6.63928C19.7864 4.59215 18.1269 2.93262 16.0797 2.93262C14.0326 2.93262 12.373 4.59215 12.373 6.63928C12.373 8.68642 14.0326 10.3459 16.0797 10.3459Z" stroke="#F4F5F6" stroke-width="1.5" stroke-linecap="round" stroke-linejoin="round"/>
<path d="M6.43958 26.6409C8.48671 26.6409 10.1462 24.9813 10.1462 22.9342C10.1462 20.8871 8.48671 19.2275 6.43958 19.2275C4.39244 19.2275 2.73291 20.8871 2.73291 22.9342C2.73291 24.9813 4.39244 26.6409 6.43958 26.6409Z" stroke="#F4F5F6" stroke-width="1.5" stroke-linecap="round" stroke-linejoin="round"/>
<path d="M25.5602 26.6409C27.6073 26.6409 29.2669 24.9813 29.2669 22.9342C29.2669 20.8871 27.6073 19.2275 25.5602 19.2275C23.513 19.2275 21.8535 20.8871 21.8535 22.9342C21.8535 24.9813 23.513 26.6409 25.5602 26.6409Z" stroke="#F4F5F6" stroke-width="1.5" stroke-linecap="round" stroke-linejoin="round"/>
</svg>
