<svg width="33" height="33" viewBox="0 0 33 33" fill="none" xmlns="http://www.w3.org/2000/svg">
<path d="M29.9597 24.5204C29.9597 25.0004 29.853 25.4937 29.6263 25.9737C29.3997 26.4537 29.1063 26.9071 28.7197 27.3337C28.0663 28.0537 27.3463 28.5737 26.533 28.9071C25.733 29.2404 24.8663 29.4137 23.933 29.4137C22.573 29.4137 21.1197 29.0937 19.5863 28.4404C18.053 27.7871 16.5197 26.9071 14.9997 25.8004C13.4663 24.6804 12.013 23.4404 10.6263 22.0671C9.25301 20.6804 8.01301 19.2271 6.90634 17.7071C5.81301 16.1871 4.93301 14.6671 4.29301 13.1604C3.65301 11.6404 3.33301 10.1871 3.33301 8.8004C3.33301 7.89374 3.49301 7.02707 3.81301 6.22707C4.13301 5.41374 4.63967 4.66707 5.34634 4.0004C6.19967 3.1604 7.13301 2.74707 8.11967 2.74707C8.49301 2.74707 8.86634 2.82707 9.19967 2.98707C9.54634 3.14707 9.85301 3.38707 10.093 3.73374L13.1863 8.09374C13.4263 8.42707 13.5997 8.73374 13.7197 9.02707C13.8397 9.30707 13.9063 9.58707 13.9063 9.8404C13.9063 10.1604 13.813 10.4804 13.6263 10.7871C13.453 11.0937 13.1997 11.4137 12.8797 11.7337L11.8663 12.7871C11.7197 12.9337 11.653 13.1071 11.653 13.3204C11.653 13.4271 11.6663 13.5204 11.693 13.6271C11.733 13.7337 11.773 13.8137 11.7997 13.8937C12.0397 14.3337 12.453 14.9071 13.0397 15.6004C13.6397 16.2937 14.2797 17.0004 14.973 17.7071C15.693 18.4137 16.3863 19.0671 17.093 19.6671C17.7863 20.2537 18.3597 20.6537 18.813 20.8937C18.8797 20.9204 18.9597 20.9604 19.053 21.0004C19.1597 21.0404 19.2663 21.0537 19.3863 21.0537C19.613 21.0537 19.7863 20.9737 19.933 20.8271L20.9463 19.8271C21.2797 19.4937 21.5997 19.2404 21.9063 19.0804C22.213 18.8937 22.5197 18.8004 22.853 18.8004C23.1063 18.8004 23.373 18.8537 23.6663 18.9737C23.9597 19.0937 24.2663 19.2671 24.5997 19.4937L29.013 22.6271C29.3597 22.8671 29.5997 23.1471 29.7463 23.4804C29.8797 23.8137 29.9597 24.1471 29.9597 24.5204Z" stroke="#F4F5F6" stroke-width="1.5" stroke-miterlimit="10"/>
</svg>
