<svg width="14" height="14" viewBox="0 0 14 14" fill="none" xmlns="http://www.w3.org/2000/svg">
<path d="M2 1C2 1.55228 1.55228 2 1 2C0.447715 2 0 1.55228 0 1C0 0.447715 0.447715 0 1 0C1.55228 0 2 0.447715 2 1Z" fill="#879AA4"/>
<path d="M8 1C8 1.55228 7.55228 2 7 2C6.44772 2 6 1.55228 6 1C6 0.447715 6.44772 0 7 0C7.55228 0 8 0.447715 8 1Z" fill="#879AA4"/>
<path d="M14 1C14 1.55228 13.5523 2 13 2C12.4477 2 12 1.55228 12 1C12 0.447715 12.4477 0 13 0C13.5523 0 14 0.447715 14 1Z" fill="#879AA4"/>
<path d="M2 7C2 7.55228 1.55228 8 1 8C0.447715 8 0 7.55228 0 7C0 6.44772 0.447715 6 1 6C1.55228 6 2 6.44772 2 7Z" fill="#879AA4"/>
<path d="M8 7C8 7.55228 7.55228 8 7 8C6.44772 8 6 7.55228 6 7C6 6.44772 6.44772 6 7 6C7.55228 6 8 6.44772 8 7Z" fill="#879AA4"/>
<path d="M14 7C14 7.55228 13.5523 8 13 8C12.4477 8 12 7.55228 12 7C12 6.44772 12.4477 6 13 6C13.5523 6 14 6.44772 14 7Z" fill="#879AA4"/>
<path d="M2 13C2 13.5523 1.55228 14 1 14C0.447715 14 0 13.5523 0 13C0 12.4477 0.447715 12 1 12C1.55228 12 2 12.4477 2 13Z" fill="#879AA4"/>
<path d="M8 13C8 13.5523 7.55228 14 7 14C6.44772 14 6 13.5523 6 13C6 12.4477 6.44772 12 7 12C7.55228 12 8 12.4477 8 13Z" fill="#879AA4"/>
<path d="M14 13C14 13.5523 13.5523 14 13 14C12.4477 14 12 13.5523 12 13C12 12.4477 12.4477 12 13 12C13.5523 12 14 12.4477 14 13Z" fill="#879AA4"/>
</svg>
