<svg width="37" height="52" viewBox="0 0 37 52" fill="none" xmlns="http://www.w3.org/2000/svg">
<path d="M7.00977 47.7598C8.11875 47.7599 9.01758 48.709 9.01758 49.8799C9.01756 51.0507 8.11874 51.9999 7.00977 52C5.90067 52 5.00099 51.0508 5.00098 49.8799C5.00098 48.709 5.90067 47.7598 7.00977 47.7598Z" fill="#CAD3D7"/>
<path d="M13.2598 47.7598C14.3687 47.7599 15.2676 48.7091 15.2676 49.8799C15.2676 51.0507 14.3687 51.9998 13.2598 52C12.1507 52 11.251 51.0508 11.251 49.8799C11.251 48.709 12.1507 47.7598 13.2598 47.7598Z" fill="#CAD3D7"/>
<path d="M20.1748 47.7598C21.2839 47.7598 22.1836 48.709 22.1836 49.8799C22.1836 51.0508 21.2839 52 20.1748 52C19.0658 51.9999 18.167 51.0507 18.167 49.8799C18.167 48.709 19.0658 47.7599 20.1748 47.7598Z" fill="#CAD3D7"/>
<path d="M9.80176 41.5107C10.9723 41.5108 11.9208 42.4601 11.9209 43.6309C11.9209 44.8017 10.9724 45.7509 9.80176 45.751C8.63104 45.751 7.68164 44.8018 7.68164 43.6309C7.68173 42.46 8.6311 41.5107 9.80176 41.5107Z" fill="#CAD3D7"/>
<path d="M17.3828 42.4023C18.1837 42.4023 18.8328 43.0018 18.833 43.7412C18.833 44.4807 18.1838 45.0801 17.3828 45.0801C16.5819 45.0799 15.9326 44.4806 15.9326 43.7412C15.9328 43.0019 16.582 42.4025 17.3828 42.4023Z" fill="#879AA4"/>
<path d="M24.4131 42.4023C25.1522 42.4025 25.7518 43.0019 25.752 43.7412C25.752 44.4806 25.1523 45.0799 24.4131 45.0801C23.6737 45.0801 23.0742 44.4807 23.0742 43.7412C23.0744 43.0018 23.6738 42.4023 24.4131 42.4023Z" fill="#879AA4"/>
<path d="M13.2598 36.1543C14.3687 36.1545 15.2676 37.0539 15.2676 38.1631C15.2675 39.2722 14.3687 40.1717 13.2598 40.1719C12.1507 40.1719 11.251 39.2723 11.251 38.1631C11.251 37.0538 12.1507 36.1543 13.2598 36.1543Z" fill="#CAD3D7"/>
<path d="M19.5049 36.1543C20.614 36.1543 21.5127 37.0538 21.5127 38.1631C21.5126 39.2723 20.6139 40.1719 19.5049 40.1719C18.3958 40.1719 17.4971 39.2723 17.4971 38.1631C17.4971 37.0538 18.3958 36.1543 19.5049 36.1543Z" fill="#CAD3D7"/>
<path d="M26.4209 36.1543C27.5298 36.1545 28.4287 37.0539 28.4287 38.1631C28.4287 39.2722 27.5298 40.1716 26.4209 40.1719C25.3118 40.1719 24.4122 39.2723 24.4121 38.1631C24.4121 37.0538 25.3118 36.1543 26.4209 36.1543Z" fill="#CAD3D7"/>
<path d="M2.88184 29.9053C4.05236 29.9055 5.00093 30.8049 5.00098 31.9141C5.00098 33.0233 4.05239 33.9227 2.88184 33.9229C1.71112 33.9229 0.761719 33.0234 0.761719 31.9141C0.761769 30.8048 1.71115 29.9053 2.88184 29.9053Z" fill="#CAD3D7"/>
<path d="M16.0469 29.9053C17.2176 29.9053 18.1669 30.8048 18.167 31.9141C18.167 33.0234 17.2176 33.9229 16.0469 33.9229C14.8762 33.9228 13.9268 33.0233 13.9268 31.9141C13.9268 30.8048 14.8763 29.9053 16.0469 29.9053Z" fill="#CAD3D7"/>
<path d="M9.12988 30.5742C9.93063 30.5744 10.5799 31.1738 10.5801 31.9131C10.5801 32.6525 9.93075 33.2528 9.12988 33.2529C8.32887 33.2529 7.67969 32.6526 7.67969 31.9131C7.67988 31.1737 8.32899 30.5742 9.12988 30.5742Z" fill="#879AA4"/>
<path d="M23.6289 30.5742C24.4296 30.5744 25.0789 31.1738 25.0791 31.9131C25.0791 32.6525 24.4298 33.2528 23.6289 33.2529C22.8279 33.2529 22.1777 32.6526 22.1777 31.9131C22.1779 31.1737 22.828 30.5742 23.6289 30.5742Z" fill="#879AA4"/>
<path d="M30.6582 30.5742C31.3975 30.5742 31.9969 31.1737 31.9971 31.9131C31.9971 32.6526 31.3976 33.2529 30.6582 33.2529C29.9188 33.2529 29.3193 32.6526 29.3193 31.9131C29.3195 31.1737 29.9189 30.5742 30.6582 30.5742Z" fill="#879AA4"/>
<path d="M6.3418 23.6572C7.45073 23.6573 8.34946 24.5559 8.34961 25.665C8.34961 26.7743 7.45083 27.6737 6.3418 27.6738C5.2327 27.6738 4.33301 26.7743 4.33301 25.665C4.33316 24.5559 5.23279 23.6572 6.3418 23.6572Z" fill="#CAD3D7"/>
<path d="M19.5049 23.6572C20.6139 23.6572 21.5125 24.5559 21.5127 25.665C21.5127 26.7743 20.614 27.6738 19.5049 27.6738C18.3958 27.6738 17.4971 26.7743 17.4971 25.665C17.4972 24.5559 18.3959 23.6572 19.5049 23.6572Z" fill="#CAD3D7"/>
<path d="M25.7529 23.6572C26.8618 23.6574 27.7606 24.556 27.7607 25.665C27.7607 26.7742 26.8619 27.6737 25.7529 27.6738C24.6438 27.6738 23.7441 26.7743 23.7441 25.665C23.7443 24.5559 24.6439 23.6572 25.7529 23.6572Z" fill="#CAD3D7"/>
<path d="M31.998 23.6572C33.1071 23.6572 34.0057 24.5559 34.0059 25.665C34.0059 26.7743 33.1071 27.6738 31.998 27.6738C30.889 27.6738 29.9902 26.7743 29.9902 25.665C29.9904 24.5559 30.889 23.6572 31.998 23.6572Z" fill="#CAD3D7"/>
<path d="M11.915 24.3252C12.6544 24.3252 13.2539 24.9255 13.2539 25.665C13.2537 26.4044 12.6543 27.0039 11.915 27.0039C11.1758 27.0039 10.5764 26.4043 10.5762 25.665C10.5762 24.9255 11.1757 24.3252 11.915 24.3252Z" fill="#879AA4"/>
<path d="M9.12695 18.0771C10.2977 18.0772 11.2471 18.9766 11.2471 20.0859C11.2468 21.195 10.2975 22.0937 9.12695 22.0938C7.9564 22.0938 7.00709 21.195 7.00684 20.0859C7.00684 18.9766 7.95624 18.0771 9.12695 18.0771Z" fill="#CAD3D7"/>
<path d="M16.0449 18.7471C16.8459 18.7471 17.4951 19.3464 17.4951 20.0859C17.4951 20.8254 16.8459 21.4248 16.0449 21.4248C15.244 21.4247 14.5948 20.8254 14.5947 20.0859C14.5947 19.3465 15.244 18.7472 16.0449 18.7471Z" fill="#879AA4"/>
<path d="M22.2949 18.7471C23.0959 18.7471 23.7451 19.3464 23.7451 20.0859C23.7451 20.8254 23.0959 21.4248 22.2949 21.4248C21.494 21.4247 20.8448 20.8254 20.8447 20.0859C20.8447 19.3465 21.494 18.7472 22.2949 18.7471Z" fill="#879AA4"/>
<path d="M28.543 18.7471C29.3439 18.7472 29.9932 19.3465 29.9932 20.0859C29.9931 20.8254 29.3439 21.4247 28.543 21.4248C27.742 21.4248 27.0928 20.8254 27.0928 20.0859C27.0928 19.3464 27.742 18.7471 28.543 18.7471Z" fill="#879AA4"/>
<path d="M34.7881 18.7471C35.5891 18.7471 36.2383 19.3464 36.2383 20.0859C36.2383 20.8254 35.5891 21.4248 34.7881 21.4248C33.9872 21.4247 33.3379 20.8254 33.3379 20.0859C33.3379 19.3465 33.9871 18.7471 34.7881 18.7471Z" fill="#879AA4"/>
<path d="M11.9189 11.8281C13.028 11.8281 13.9277 12.7276 13.9277 13.8369C13.9276 14.9461 13.028 15.8457 11.9189 15.8457C10.8101 15.8456 9.91127 14.946 9.91113 13.8369C9.91113 12.7277 10.81 11.8283 11.9189 11.8281Z" fill="#CAD3D7"/>
<path d="M18.0527 11.8281C19.2234 11.8281 20.1729 12.7276 20.1729 13.8369C20.1727 14.9461 19.2234 15.8457 18.0527 15.8457C16.8822 15.8456 15.9328 14.9461 15.9326 13.8369C15.9326 12.7277 16.8821 11.8282 18.0527 11.8281Z" fill="#CAD3D7"/>
<path d="M25.085 11.8281C26.194 11.8282 27.0928 12.7277 27.0928 13.8369C27.0926 14.946 26.1939 15.8456 25.085 15.8457C23.9759 15.8457 23.0763 14.9461 23.0762 13.8369C23.0762 12.7276 23.9759 11.8281 25.085 11.8281Z" fill="#CAD3D7"/>
<path d="M14.709 5.58008C15.8797 5.58008 16.8291 6.47957 16.8291 7.58887C16.8288 8.69795 15.8795 9.59668 14.709 9.59668C13.5385 9.59666 12.5891 8.69794 12.5889 7.58887C12.5889 6.47958 13.5383 5.5801 14.709 5.58008Z" fill="#CAD3D7"/>
<path d="M22.2949 6.24902C23.0959 6.24902 23.7451 6.84836 23.7451 7.58789C23.745 8.32732 23.0959 8.92676 22.2949 8.92676C21.4941 8.92667 20.8449 8.32727 20.8447 7.58789C20.8447 6.84841 21.494 6.24911 22.2949 6.24902Z" fill="#879AA4"/>
<path d="M29.2109 6.24902C30.0118 6.24917 30.6611 6.84845 30.6611 7.58789C30.661 8.32723 30.0117 8.92662 29.2109 8.92676C28.41 8.92676 27.7609 8.32732 27.7607 7.58789C27.7607 6.84836 28.4099 6.24902 29.2109 6.24902Z" fill="#879AA4"/>
<path d="M18.0527 0C19.2234 0 20.1728 0.949206 20.1729 2.12012C20.1729 3.29104 19.2234 4.24023 18.0527 4.24023C16.8821 4.24017 15.9326 3.291 15.9326 2.12012C15.9326 0.949248 16.8821 6.80421e-05 18.0527 0Z" fill="#CAD3D7"/>
<path d="M24.2979 0C25.4686 0 26.418 0.949206 26.418 2.12012C26.418 3.29104 25.4686 4.24023 24.2979 4.24023C23.1273 4.23999 22.1787 3.29089 22.1787 2.12012C22.1787 0.949358 23.1274 0.000245336 24.2979 0Z" fill="#CAD3D7"/>
<path d="M31.332 0C32.4411 0 33.3408 0.949206 33.3408 2.12012C33.3408 3.29104 32.4411 4.24023 31.332 4.24023C30.2231 4.24 29.3242 3.29089 29.3242 2.12012C29.3242 0.949353 30.2231 0.000237205 31.332 0Z" fill="#CAD3D7"/>
</svg>
