<svg width="36" height="52" viewBox="0 0 36 52" fill="none" xmlns="http://www.w3.org/2000/svg">
<ellipse cx="11.1533" cy="25.6672" rx="1.3388" ry="1.33904" fill="#3E485A"/>
<ellipse cx="22.8674" cy="31.9133" rx="1.45037" ry="1.33904" fill="#3E485A"/>
<ellipse cx="29.8974" cy="31.9133" rx="1.3388" ry="1.33904" fill="#3E485A"/>
<ellipse cx="8.36834" cy="31.9133" rx="1.45037" ry="1.33904" fill="#3E485A"/>
<ellipse cx="21.5344" cy="20.0851" rx="1.45037" ry="1.33904" fill="#3E485A"/>
<ellipse cx="27.7814" cy="20.0851" rx="1.45037" ry="1.33904" fill="#3E485A"/>
<ellipse cx="34.0265" cy="20.0851" rx="1.45037" ry="1.33904" fill="#3E485A"/>
<ellipse cx="15.2844" cy="20.0851" rx="1.45037" ry="1.33904" fill="#3E485A"/>
<ellipse cx="28.4494" cy="7.58904" rx="1.45037" ry="1.33904" fill="#3E485A"/>
<ellipse cx="21.5344" cy="7.58904" rx="1.45037" ry="1.33904" fill="#3E485A"/>
<ellipse cx="23.6513" cy="43.7414" rx="1.3388" ry="1.33904" fill="#3E485A"/>
<ellipse cx="16.6222" cy="43.7414" rx="1.45037" ry="1.33904" fill="#3E485A"/>
<ellipse cx="18.7426" cy="25.6648" rx="2.0082" ry="2.00856" fill="#1D1F23"/>
<ellipse cx="24.9906" cy="25.6648" rx="2.0082" ry="2.00856" fill="#1D1F23"/>
<ellipse cx="31.2367" cy="25.6648" rx="2.0082" ry="2.00856" fill="#1D1F23"/>
<ellipse cx="5.58047" cy="25.6648" rx="2.0082" ry="2.00856" fill="#1D1F23"/>
<ellipse cx="15.2858" cy="31.9148" rx="2.11977" ry="2.00856" fill="#1D1F23"/>
<ellipse cx="2.11977" cy="31.9148" rx="2.11977" ry="2.00856" fill="#1D1F23"/>
<ellipse cx="8.36586" cy="20.0867" rx="2.11977" ry="2.00856" fill="#1D1F23"/>
<ellipse cx="24.3227" cy="13.8367" rx="2.0082" ry="2.00856" fill="#1D1F23"/>
<ellipse cx="17.2907" cy="13.8367" rx="2.11977" ry="2.00856" fill="#1D1F23"/>
<ellipse cx="11.1576" cy="13.8367" rx="2.0082" ry="2.00856" fill="#1D1F23"/>
<ellipse cx="13.9479" cy="7.58668" rx="2.11977" ry="2.00856" fill="#1D1F23"/>
<ellipse cx="30.5707" cy="2.12015" rx="2.0082" ry="2.12015" fill="#1D1F23"/>
<ellipse cx="23.5368" cy="2.12015" rx="2.11977" ry="2.12015" fill="#1D1F23"/>
<ellipse cx="17.2907" cy="2.12015" rx="2.11977" ry="2.12015" fill="#1D1F23"/>
<ellipse cx="19.4135" cy="49.878" rx="2.0082" ry="2.12015" fill="#1D1F23"/>
<ellipse cx="12.4984" cy="49.878" rx="2.0082" ry="2.12015" fill="#1D1F23"/>
<ellipse cx="6.24844" cy="49.878" rx="2.0082" ry="2.12015" fill="#1D1F23"/>
<ellipse cx="9.03969" cy="43.6319" rx="2.11977" ry="2.12015" fill="#1D1F23"/>
<ellipse cx="25.6586" cy="38.1648" rx="2.0082" ry="2.00856" fill="#1D1F23"/>
<ellipse cx="18.7426" cy="38.1648" rx="2.0082" ry="2.00856" fill="#1D1F23"/>
<ellipse cx="12.4984" cy="38.1648" rx="2.0082" ry="2.00856" fill="#1D1F23"/>
</svg>
